<?xml version="1.0" encoding="UTF-8" standalone="no"?> <!-- Created with Vectornator for iOS (http://vectornator.io/) --><!DOCTYPE svg PUBLIC "-//W3C//DTD SVG 1.1//EN" "http://www.w3.org/Graphics/SVG/1.1/DTD/svg11.dtd">
<svg viewBox="0 0 256 256" style="fill-rule:nonzero;clip-rule:evenodd;stroke-linecap:round;stroke-linejoin:round;" height="100%" xmlns:vectornator="http://vectornator.io" xml:space="preserve" xmlns:xlink="http://www.w3.org/1999/xlink" width="100%" xmlns="http://www.w3.org/2000/svg" version="1.1">
<metadata>
<vectornator:setting key="WDCMYKEnabledKey" value="false"/>
<vectornator:setting value="false" key="WDSnapToGrid"/>
<vectornator:setting value="true" key="VNDimensionsVisible"/>
<vectornator:setting value="true" key="WDGuidesVisible"/>
<vectornator:setting key="WDDynamicGuides" value="true"/>
<vectornator:setting value="false" key="IsTimeLapseWatermarkDisabled"/>
<vectornator:setting value="true" key="VNSnapToGuides"/>
<vectornator:setting key="WDSnapToPoints" value="false"/>
<vectornator:setting key="UndoHistoryDisabled" value="true"/>
<vectornator:setting value="Pixels" key="WDUnits"/>
<vectornator:setting value="false" key="WDSnapToEdges"/>
<vectornator:setting value="false" key="WDDisplayWhiteBackground"/>
<vectornator:setting key="WDIsolateActiveLayer" value="false"/>
<vectornator:setting value="false" key="WDOutlineMode"/>
<vectornator:setting key="WDRulersVisible" value="true"/>
</metadata>
<defs>
<path d="M184.071+63.6861C170.038+49.6532+147.362+49.5648+133.199+63.3867L133.168+63.3557L75.3585+121.165C56.6583+139.865+56.6583+170.184+75.3585+188.884C94.0587+207.585+124.378+207.585+143.078+188.884L159.595+172.368C161.875+170.087+161.875+166.39+159.595+164.109C157.314+161.829+153.617+161.829+151.336+164.109L134.819+180.626C120.68+194.765+97.7562+194.765+83.617+180.626C69.4778+166.487+69.4777+143.563+83.617+129.423L141.426+71.6142L141.457+71.6452C151.058+62.3831+166.34+62.4725+175.812+71.9445C185.284+81.4165+185.374+96.6988+176.112+106.3L118.303+164.109C113.285+169.126+105.151+169.126+100.134+164.109C95.1168+159.092+95.1168+150.958+100.134+145.94L116.651+129.423C118.931+127.143+118.931+123.446+116.651+121.165C114.37+118.885+110.673+118.885+108.392+121.165L91.8754+137.682C82.2973+147.26+82.2973+162.789+91.8754+172.368C101.454+181.946+116.983+181.946+126.561+172.368L184.37+114.558C198.192+100.395+198.104+77.7189+184.071+63.6861Z" id="Mask"/>
</defs>
<g vectornator:layerName="图层 1" id="图层 1">
<path fill="#ffffff" d="M128+0L128+0C198.692+0+256+57.3075+256+128L256+128C256+198.692+198.692+256+128+256L128+256C57.3075+256+0+198.692+0+128L0+128C0+57.3075+57.3075+0+128+0Z" opacity="1"/>
<g vectornator:mask="#Mask" opacity="1">
<use xlink:href="#Mask" stroke="none" fill="#ffffff"/>
<clipPath id="ClipPath">
<use fill="none" xlink:href="#Mask" overflow="visible"/>
</clipPath>
<g clip-path="url(#ClipPath)">
<path fill-opacity="0.399261" opacity="1" d="M20.7677-134.378L226.353-134.378L226.353-134.378L226.353-87.7409L226.353+107.527L226.353+107.527C226.353+107.527+185.053+155.229+134.87+184.246C109.865+198.705+96.7784+150.293+73.4166+125.767C53.179+104.521+20.7677+107.527+20.7677+107.527L20.7677+107.527L20.7677-134.378L20.7677-134.378Z" fill="#1c71e8"/>
<path fill="#1c71e8" d="M34.9528+26.2563L281.74+26.2563L281.74+26.2563L281.74+204.725L281.74+204.725C281.74+204.725+246.834+190.011+199.548+183.772C152.263+177.534+127.964+297.036+81.814+243.298C35.6635+189.561+34.9528+204.725+34.9528+204.725L34.9528+204.725L34.9528+26.2563L34.9528+26.2563Z" opacity="1" fill-opacity="0.399261"/>
<path fill="#1c71e8" fill-opacity="0.326028" d="M-34.1555+147.902C-34.1555+147.902+0.172253+212.97+56.7274+180.436C88.5807+162.112+107.866+60.3104+144.624+84.0398C178.331+105.801+248.734+147.902+248.734+147.902L248.734+147.902L248.734+366.929L248.734+366.929L-34.1555+366.929L-34.1555+366.929L-34.1555+147.902L-34.1555+147.902Z" opacity="1"/>
<path d="M-75.2473+143.238C-75.2473+143.238-62.8736+358.426+17.7691+187.186C98.4117+15.9455+171.374+143.238+171.374+143.238L171.374+143.238L171.374+429.692L171.374+429.692L-75.2473+429.692L-75.2473+429.692L-75.2473+143.238L-75.2473+143.238Z" opacity="1" fill-opacity="0.326028" fill="#1c71e8"/>
<path fill-opacity="0.399261" d="M48.0634-169.93L304.875-169.93L304.875-169.93L304.875+68.9542L304.875+68.9542C304.875+68.9542+294.066+48.8168+211.792+23.8055C169.135+10.8379+151.093+85.8667+100.395+147.204C59.4917+196.691+48.0634+68.9542+48.0634+68.9542L48.0634+68.9542L48.0634-169.93L48.0634-169.93Z" fill="#1c71e8" opacity="1"/>
<path fill-opacity="0.326028" opacity="1" fill="#1c71e8" d="M84.011+168.872C84.011+168.872+100.904+128+156.12+128C182.425+128+212.614+178.149+242.057+187.863C274.417+198.539+304.875+168.872+304.875+168.872L304.875+168.872L304.875+399.431L304.875+399.431L84.011+399.431L84.011+399.431L84.011+168.872L84.011+168.872Z"/>
</g>
</g>
</g>
</svg>
