<svg xmlns="http://www.w3.org/2000/svg" xmlns:xlink="http://www.w3.org/1999/xlink" width="256" height="256" viewBox="0 0 256 256">
  <defs>
    <clipPath id="clip-path">
      <rect id="矩形_7" data-name="矩形 7" width="256" height="256"/>
    </clipPath>
    <clipPath id="clip-path-2">
      <path id="路径_10" data-name="路径 10" d="M231.377,142.769a36.273,36.273,0,0,0-51.3,0l-68.4,68.4a45.945,45.945,0,0,0,64.975,64.976l27.358-27.358a4.836,4.836,0,0,0-6.839-6.839L169.822,269.3a36.272,36.272,0,0,1-51.3-51.3l68.4-68.4a26.6,26.6,0,0,1,37.616,37.616l-68.4,68.4-.042-.043c-.154.167-.267.352-.428.513a16.927,16.927,0,0,1-23.938-23.938c.161-.161.348-.275.513-.427l-.043-.043,27.358-27.358a4.836,4.836,0,0,0-6.839-6.839l-27.358,27.358a26.6,26.6,0,0,0,37.618,37.616l68.4-68.4A36.273,36.273,0,0,0,231.377,142.769Z" transform="translate(-98.229 -132.146)" fill="none"/>
    </clipPath>
  </defs>
  <g id="App_Icon_256x" data-name="App Icon 256x" clip-path="url(#clip-path)">
    <rect width="256" height="256" fill="rgba(255,255,255,0)"/>
    <g id="App_Icon_256x-2" data-name="App Icon 256x" clip-path="url(#clip-path)">
      <rect id="矩形_6" data-name="矩形 6" width="256" height="256" fill="rgba(255,255,255,0)"/>
      <circle id="椭圆_1" data-name="椭圆 1" cx="128" cy="128" r="128" fill="#fff"/>
    </g>
    <g id="Untitled" transform="translate(-42.229 -83.082)">
      <g id="组_5" data-name="组 5" transform="translate(98.229 132.146)">
        <path id="路径_3" data-name="路径 3" d="M231.377,142.769a36.273,36.273,0,0,0-51.3,0l-68.4,68.4a45.945,45.945,0,0,0,64.975,64.976l27.358-27.358a4.836,4.836,0,0,0-6.839-6.839L169.822,269.3a36.272,36.272,0,0,1-51.3-51.3l68.4-68.4a26.6,26.6,0,0,1,37.616,37.616l-68.4,68.4-.042-.043c-.154.167-.267.352-.428.513a16.927,16.927,0,0,1-23.938-23.938c.161-.161.348-.275.513-.427l-.043-.043,27.358-27.358a4.836,4.836,0,0,0-6.839-6.839l-27.358,27.358a26.6,26.6,0,0,0,37.618,37.616l68.4-68.4A36.273,36.273,0,0,0,231.377,142.769Z" transform="translate(-98.229 -132.146)" fill="#fff"/>
        <g id="组_4" data-name="组 4" clip-path="url(#clip-path-2)">
          <path id="路径_4" data-name="路径 4" d="M67.8-9.88H289.485V250.962h0s-44.533,51.437-98.645,82.726c-26.963,15.591-41.074-36.611-66.266-63.058-21.821-22.909-56.77-19.668-56.77-19.668h0V-9.88Z" transform="translate(-111.546 -194.313)" fill="rgba(28,113,232,0.4)"/>
          <path id="路径_5" data-name="路径 5" d="M78.443,110.6H344.551v192.44h0s-37.639-15.867-88.627-22.594-77.188,122.131-126.952,64.187-50.529-41.593-50.529-41.593h0V110.6Z" transform="translate(-106.889 -141.579)" fill="rgba(28,113,232,0.4)"/>
          <path id="路径_6" data-name="路径 6" d="M26.612,223.966s37.015,70.162,98,35.08c34.346-19.759,55.143-129.53,94.778-103.943,36.345,23.465,112.26,68.862,112.26,68.862h0V460.14H26.612V223.966Z" transform="translate(-129.577 -123.78)" fill="rgba(28,113,232,0.33)"/>
          <path id="路径_7" data-name="路径 7" d="M-4.207,213.268S9.136,445.3,96.092,260.658s165.63-47.39,165.63-47.39h0V522.15H-4.207V213.268Z" transform="translate(-143.067 -118.112)" fill="rgba(28,113,232,0.33)"/>
          <path id="路径_8" data-name="路径 8" d="M88.277-36.544H365.193V221.042h0s-11.656-21.714-100.37-48.684c-46-13.982-65.452,66.92-120.118,133.059-44.105,53.361-56.428-84.375-56.428-84.375h0V-36.544Z" transform="translate(-102.585 -205.985)" fill="rgba(28,113,232,0.4)"/>
          <path id="路径_9" data-name="路径 9" d="M115.237,230.976S133.453,186.9,192.992,186.9c28.365,0,60.916,54.075,92.665,64.549,34.893,11.513,67.735-20.476,67.735-20.476h0V479.583H115.237V230.976Z" transform="translate(-90.784 -108.178)" fill="rgba(28,113,232,0.33)"/>
        </g>
      </g>
    </g>
  </g>
</svg>
