<?xml version="1.0" encoding="UTF-8" standalone="no"?> <!-- Created with Vectornator for iOS (http://vectornator.io/) --><!DOCTYPE svg PUBLIC "-//W3C//DTD SVG 1.1//EN" "http://www.w3.org/Graphics/SVG/1.1/DTD/svg11.dtd">
<svg xmlns:vectornator="http://vectornator.io" viewBox="0 0 1080 1080" version="1.1" height="100%" xml:space="preserve" width="100%" style="fill-rule:nonzero;clip-rule:evenodd;stroke-linecap:round;stroke-linejoin:round;" xmlns="http://www.w3.org/2000/svg" xmlns:xlink="http://www.w3.org/1999/xlink">
<metadata>
<vectornator:setting key="WDSnapToPoints" value="false"/>
<vectornator:setting key="VNSnapToGuides" value="true"/>
<vectornator:setting key="WDDisplayWhiteBackground" value="false"/>
<vectornator:setting value="true" key="WDRulersVisible"/>
<vectornator:setting key="IsTimeLapseWatermarkDisabled" value="false"/>
<vectornator:setting value="true" key="VNDimensionsVisible"/>
<vectornator:setting value="false" key="WDSnapToGrid"/>
<vectornator:setting key="WDCMYKEnabledKey" value="false"/>
<vectornator:setting key="UndoHistoryDisabled" value="true"/>
<vectornator:setting value="true" key="WDGuidesVisible"/>
<vectornator:setting value="false" key="WDSnapToEdges"/>
<vectornator:setting key="WDDynamicGuides" value="true"/>
<vectornator:setting key="WDIsolateActiveLayer" value="false"/>
<vectornator:setting value="Points" key="WDUnits"/>
<vectornator:setting value="false" key="WDOutlineMode"/>
</metadata>
<defs>
<path id="Mask" d="M944.198+76.3811C843.039-24.7774+679.573-25.4143+577.476+74.2231L577.253+73.9998L160.524+490.729C25.7201+625.533+25.7202+844.093+160.524+978.897C295.328+1113.7+513.888+1113.7+648.692+978.897L767.758+859.832C784.197+843.392+784.197+816.738+767.758+800.299C751.318+783.859+724.664+783.859+708.225+800.299L589.159+919.364C487.235+1021.29+321.982+1021.29+220.057+919.364C118.132+817.439+118.132+652.186+220.057+550.261L636.786+133.533L637.009+133.756C706.22+66.9886+816.384+67.6332+884.665+135.914C952.946+204.195+953.59+314.359+886.823+383.57L470.094+800.299C433.927+836.466+375.289+836.466+339.122+800.299C302.955+764.132+302.955+705.494+339.122+669.327L458.188+550.261C474.627+533.822+474.627+507.168+458.188+490.729C441.748+474.289+415.094+474.289+398.655+490.729L279.589+609.794C210.544+678.84+210.544+790.786+279.589+859.832C348.635+928.878+460.581+928.877+529.627+859.832L946.356+443.103C1045.99+341.006+1045.36+177.54+944.198+76.3811Z"/>
</defs>
<g vectornator:layerName="Untitled" id="Untitled">
<g vectornator:mask="#Mask" opacity="1">
<use fill="#ffffff" xlink:href="#Mask" stroke="none"/>
<clipPath id="ClipPath">
<use xlink:href="#Mask" overflow="visible" fill="none"/>
</clipPath>
<g clip-path="url(#ClipPath)">
<path d="M-233.004-1351.4L1249-1351.4L1249-1351.4L1249-1015.21L1249+392.416L1249+392.416C1249+392.416+951.277+736.283+589.526+945.462C409.272+1049.69+314.934+700.701+146.526+523.902C0.638947+370.747-233.004+392.416-233.004+392.416L-233.004+392.416L-233.004-1351.4L-233.004-1351.4Z" fill-opacity="0.399261" fill="#1c71e8" opacity="1"/>
<path fill="#1c71e8" d="M-130.748-193.438L1648.26-193.438L1648.26-193.438L1648.26+1093.09L1648.26+1093.09C1648.26+1093.09+1396.63+987.015+1055.77+942.044C714.903+897.073+539.744+1758.52+207.06+1371.15C-125.624+983.775-130.748+1093.09-130.748+1093.09L-130.748+1093.09L-130.748-193.438L-130.748-193.438Z" opacity="1" fill-opacity="0.399261"/>
<path d="M-628.928+683.465C-628.928+683.465-381.47+1152.52+26.2185+917.993C255.839+785.901+394.862+52.0471+659.834+223.105C902.823+379.971+1410.33+683.465+1410.33+683.465L1410.33+683.465L1410.33+2262.36L1410.33+2262.36L-628.928+2262.36L-628.928+2262.36L-628.928+683.465L-628.928+683.465Z" opacity="1" fill="#1c71e8" fill-opacity="0.326028"/>
<path d="M-925.145+649.843C-925.145+649.843-835.947+2201.07-254.62+966.651C326.707-267.765+852.67+649.843+852.67+649.843L852.67+649.843L852.67+2714.8L852.67+2714.8L-925.145+2714.8L-925.145+2714.8L-925.145+649.843L-925.145+649.843Z" fill-opacity="0.326028" opacity="1" fill="#1c71e8"/>
<path fill-opacity="0.399261" opacity="1" d="M-36.2377-1607.68L1815.04-1607.68L1815.04-1607.68L1815.04+114.357L1815.04+114.357C1815.04+114.357+1737.12-30.8069+1144.03-211.105C836.526-304.584+706.468+236.274+341.003+678.434C46.1452+1035.17-36.2377+114.357-36.2377+114.357L-36.2377+114.357L-36.2377-1607.68L-36.2377-1607.68Z" fill="#1c71e8"/>
<path fill="#1c71e8" fill-opacity="0.326028" opacity="1" d="M222.897+834.636C222.897+834.636+344.674+540+742.709+540C932.332+540+1149.96+901.505+1362.2+971.53C1595.48+1048.49+1815.04+834.636+1815.04+834.636L1815.04+834.636L1815.04+2496.66L1815.04+2496.66L222.897+2496.66L222.897+2496.66L222.897+834.636L222.897+834.636Z"/>
</g>
</g>
</g>
</svg>
