<?xml version="1.0" encoding="UTF-8"?>
<svg width="256px" height="256px" viewBox="0 0 256 256" version="1.1" xmlns="http://www.w3.org/2000/svg" xmlns:xlink="http://www.w3.org/1999/xlink">
    <title>ClipCC</title>
    <g id="页面-1" stroke="none" stroke-width="1" fill="none" fill-rule="evenodd">
        <path d="M179.058821,0.555417514 C192.062609,-0.524482822 205.88978,-0.537338778 217.672688,5.27355351 C238.101128,13.3213822 252.836861,31.6025522 255.704508,51.5549965 C256.031023,59.7956645 256.698248,68.3577315 253.617656,76.2898566 C251.62008,82.0254844 248.824619,87.5075893 245.298639,92.6040652 C240.940383,98.9291957 234.438489,103.634476 228.845157,108.982554 C194.007498,140.488217 159.202965,172.032449 124.431556,203.615249 C117.801896,209.593268 111.243217,216.098382 102.242779,219.106676 C95.1446411,222.127826 87.1663347,222.294953 79.429365,221.947842 C60.3921606,220.520831 43.7115378,207.150637 38.9557857,190.592165 C34.4981555,176.566316 39.3106926,160.946329 49.9862912,150.237318 C67.7127063,134.184513 85.4107288,118.14028 103.080359,102.104617 C106.189343,99.0577553 111.598124,97.6178882 115.715043,99.751977 C121.209002,102.194609 122.813181,109.933894 118.298765,113.777825 C100.36887,130.336297 81.6865727,146.251971 64.1967622,163.157554 C57.623887,169.212709 55.8067638,178.507566 58.0213827,186.555394 C61.2581333,194.96319 69.3784025,202.291085 79.4009725,203.422409 C84.7245755,203.872368 90.3037115,203.820944 95.3008002,201.879694 C100.894132,199.835597 104.798108,195.451716 108.957616,191.762057 C146.691315,157.79662 183.899751,123.394081 221.647645,89.4672119 C230.013769,82.3630797 235.160432,72.6932851 236.085257,62.3411439 C237.845595,40.8202729 218.396698,19.0551387 194.035891,18.4123409 C181.105356,17.2757794 168.260899,21.2389191 158.786541,29.28848 C118.227784,65.7351164 78.293663,102.708847 37.7491024,139.155483 C28.1382244,147.743262 22.6442661,159.583598 20.6425913,171.50107 C17.4484295,191.94204 27.2722516,213.745742 45.7983902,225.907477 C57.8068464,234.28289 72.7070425,238.528625 87.8477559,237.889228 C105.791847,237.233575 122.571844,228.890059 134.596089,217.088291 C149.189859,203.679528 164.024966,190.437893 178.632933,177.003419 C180.975318,174.895042 183.147348,172.490978 186.171155,171.166815 C189.261629,170.364659 192.554224,170.477262 195.569089,171.488214 C199.274316,172.863801 200.537785,176.849147 200.410018,180.17884 C199.969934,183.521389 197.272642,186.079724 194.731508,188.303805 C188.655503,193.62617 182.716728,199.059955 176.915184,204.605157 C164.73478,214.825643 153.335171,225.778917 141.424497,236.269378 C128.134416,247.25647 111.235603,253.998248 93.3133217,255.463321 C79.9404309,257.134595 66.3403997,254.717675 53.7341077,250.770897 C48.561094,248.973188 43.6467329,246.616343 39.0977485,243.751544 C27.7407287,237.683533 19.0100197,228.452956 11.8550973,218.720997 C4.38785674,206.700678 -0.424680398,193.009085 0.0296003939,179.124652 C-0.325306475,165.278787 4.58660459,151.728609 12.1390227,139.823993 C19.0526085,129.449236 29.1745524,121.337128 38.4731124,112.826485 C73.1688079,81.162264 108.403962,49.9865698 143.028676,18.2837814 C152.57822,8.96927614 165.232969,2.74260151 179.058821,0.555417514 Z" id="ClipCC" fill="#4E97FE" fill-rule="nonzero"></path>
    </g>
</svg>